DataType=double
version=3
OpenSimVersion=4.5-2024-01-10-34fd6af
endheader
time	ground_force_2_vx	ground_force_2_vy	ground_force_2_vz	ground_force_2_px	ground_force_2_py	ground_force_2_pz	ground_moment_2_mx	ground_moment_2_my	ground_moment_2_mz	ground_force_1_vx	ground_force_1_vy	ground_force_1_vz	ground_force_1_px	ground_force_1_py	ground_force_1_pz	ground_moment_1_mx	ground_moment_1_my	ground_moment_1_mz
38.67	-32.91420155448142	759.8704849933338	-61.42333680755168	1.074209273147484	0.01929718473203197	0.5827189411624243	-1.240730565827766	2.816540050604917	-2.631931187920942	0.1892020579439482	0.5932602541216738	0.0523611856581212	1.137242050417528	0.01929718473203197	0.3343723535261198	-0.006152744979269098	-0.001049033871147964	0.006925174756275743
38.68	-29.52553350155498	761.9234223461121	-60.77092601831875	1.066107944850087	0.01929718473203197	0.5826101790279028	-1.383029126945486	2.751895848282111	-2.241181808172819	0.09497530998996062	0.5119832465024388	0.06991300347176121	1.16143852606502	0.01929718473203197	0.3316602468747575	-0.004499198371855195	-5.850844254373655e-05	0.005025016199094567
38.69	-25.84161008652721	763.3535926883378	-60.23766876207706	1.058011693621559	0.01929718473203197	0.5825300391712755	-1.502032372477538	2.678459832831981	-1.887519513853032	-0.01466983875532613	0.3571612566603335	0.0965991008947924	1.185396908585586	0.01929718473203197	0.3289051392037252	0.0006480596713083209	0.0008036377755127333	0.01230116329870468
38.7	-21.89747938949419	764.1721820133733	-59.82594628925052	1.049925142275704	0.01929718473203197	0.5824826705843232	-1.602131161024266	2.594931702393704	-1.546750927607826	-0.1430278442233597	0.09924373401673847	0.1345491876228024	1.208836815006959	0.01929718473203197	0.3261722317036161	0.01065383345207604	0.001249632238819798	0.03211598328614418
38.71	-17.74276291360832	764.4532553732197	-59.53668721419959	1.041852633841767	0.01929718473203197	0.5824725897650631	-1.689329889194999	2.499372618720497	-1.18820000178048	-0.2913703672213011	-0.299413913344722	0.1836147297625317	1.231452905650124	0.01929718473203197	0.3235363807931769	0.02679892541669537	0.0009557276848071172	0.06751720007009121
38.72	-13.44407680763348	764.3273624278247	-59.37194894735364	1.033797757978845	0.01929718473203197	0.5825036846484876	-1.77117659872637	2.389963821554518	-0.7744949818446503	-0.4564992675849542	-0.8783923185450817	0.2405765691061887	1.252925172649589	0.01929718473203197	0.3210796155117269	0.05005190475086163	-0.0004444378408754446	0.1207477743691123
38.73	-9.086700618784867	763.9660198764169	-59.33784836427823	1.02576294429145	0.01929718473203197	0.5825782280268975	-1.856456647936472	2.265921906484436	-0.2625593565897377	-0.6278027593110274	-1.670180981981446	0.2981544185034011	1.272932598609997	0.01929718473203197	0.3188878644911241	0.0807146498931941	-0.003350060983791536	0.1924431437797536
38.74	-4.773525012998119	763.557263691756	-59.44682590247793	1.017749204400619	0.01929718473203197	0.5826961462304752	-1.954643942461869	2.128297837479811	0.3940768381964537	-0.7839299833578384	-2.687522368787995	0.3438994167573028	1.291169164904844	0.01929718473203197	0.3170471456617885	0.1179250723514906	-0.008159847910323093	0.2804748228194478
38.75	-0.619303053194292	763.2747025858671	-59.71790193484575	1.009756082955935	0.01929718473203197	0.582854711256096	-2.075159603504427	1.980440636025571	1.241771951922979	-0.8893633439067106	-3.906553407307797	0.3591432662307454	1.30736078144177	0.01929718473203197	0.3156394229953113	0.1590158794221577	-0.01520778250250721	0.3784367903624164
38.76	3.260139731404625	763.2449496233165	-60.1735050686551	1.001781844528081	0.01929718473203197	0.5830487091607215	-2.226540973060516	1.828022782173662	2.322455222480825	-0.8913950170112788	-5.245636035801567	0.3182918816894755	1.321281500205743	0.01929718473203197	0.3147382357717256	0.1987542748988393	-0.02466115032659766	0.4738334178883783
38.77	6.762151604032537	763.5201057572312	-60.83258560183679	0.9938238870378617	0.01929718473203197	0.5832710209843925	-2.415656420555369	1.678608945275876	3.669080749714908	-0.7183075279698325	-6.540594651331105	0.1888841438078899	1.332767403186322	0.01929718473203197	0.314404128218529	0.2285268964602543	-0.03637596986808833	0.5461216204224526
38.78	9.812566991360056	764.0616374995186	-61.70145608580367	0.9858793420633298	0.01929718473203197	0.58351346931677	-2.647083084139735	1.540835296765755	5.30147880914824	-0.2799100107262795	-7.518343309753675	-0.06702497535401619	1.341726806307741	0.01929718473203197	0.3146799220751358	0.2355891204498919	-0.04970907387655177	0.5648906585069071
38.79	12.37974332871809	764.7389683142962	-62.76477375854614	0.9779458045710366	0.01929718473203197	0.583767754731048	-2.922690724685378	1.423362996161317	7.223091782551838	0.5280380033781036	-7.772647672381652	-0.4894776709025805	1.348145830858455	0.01929718473203197	0.3155860153859036	0.2025687564304932	-0.06329260971112372	0.4886324854796509
38.8	14.4848216526678	765.341522891214	-63.97920411415586	0.9700221313150756	0.01929718473203197	0.5840263322478748	-3.241384957062899	1.333822217923627	9.418876882572686	1.813631532807076	-6.748037093428763	-1.114474878345	1.352088873607954	0.01929718473203197	0.3171161291492375	0.1074990661215558	-0.07478608403236686	0.2647593987150176
38.81	16.20459974402219	765.5985466183438	-65.27236015627115	0.9621092552959282	0.01929718473203197	0.5842831401225971	-3.598919814684299	1.277972485620415	11.85451536592152	3.670732670540747	-3.740590623754997	-1.964354937458971	1.35369397371609	0.01929718473203197	0.3192341707851394	-0.07525141192454465	-0.08063449697842029	-0.1682507708596637
38.82	17.66263324920772	765.1982060727295	-66.54909502181978	0.9542109765509958	0.01929718473203197	0.5845341618739502	-3.987733671401176	1.259274030299378	14.4770363431397	6.150853541373997	2.072750804880798	-3.03412152932686	1.353163478005224	0.01929718473203197	0.3218730219578967	-0.3726978428807621	-0.07588253569853531	-0.875490801501856
38.83	19.00678895161744	763.7968399445676	-67.70425611397029	0.9463346993535271	0.01929718473203197	0.5847778485156019	-4.396824450769881	1.278931796676696	17.21693269479282	9.222835546555704	11.56273934698498	-4.274154530257832	1.350750734912477	0.01929718473203197	0.3249359893530669	-0.8091191156126196	-0.0542010012200127	-1.915881428117538
38.84	20.37758072137078	761.0118152469508	-68.63639645537445	0.9384920867129959	0.01929718473203197	0.5850154336139579	-4.811675313329508	1.336235315543783	19.99161686393875	12.71748320529504	25.52796260235687	-5.577058215461768	1.346743816750315	0.01929718473203197	0.3283013460023293	-1.399945918700304	-0.009055553414316853	-3.327815516500411
38.85	21.87678734490517	756.4010114383836	-69.25581846471633	0.9306995933249478	0.01929718473203197	0.5852511384648106	-5.214347764770729	1.428841858048788	22.70972676406117	16.26609245059201	44.54829384681068	-6.787342335606965	1.34144749661319	0.01929718473203197	0.3318298888310718	-2.144864305152044	0.06239296577748665	-5.113065965456082
38.86	23.5468971373914	749.4453788629579	-69.48485630191547	0.9229788216949445	0.01929718473203197	0.5854922045057137	-5.584107586139258	1.552657169161264	25.27563190140186	19.28096941616213	68.86201749609251	-7.735711693795274	1.335164885680427	0.01929718473203197	0.3353748688975314	-3.023198268312776	0.1544897054690857	-7.225147909988098
38.87	25.3693891218097	739.5528073835563	-69.2534655979731	0.9153566317134271	0.01929718473203197	0.585748631951763	-5.898811894700859	1.701104153404191	27.59349187132134	21.04518450084997	98.31021600583074	-8.258722500860088	1.328180233954202	0.01929718473203197	0.3387931669505365	-3.994543662463018	0.254408777901465	-9.567916078271937
38.88	27.28320107630868	726.0885238017954	-68.49545591110382	0.9078649324929828	0.01929718473203197	0.5860324760738936	-6.136745521478781	1.863941446260019	29.57048486950377	20.9137960887159	132.3605200006406	-8.175504431602697	1.320744358849504	0.01929718473203197	0.341956315407634	-5.005000854863024	0.3525500095631368	-12.00674731178656
38.89	29.21334827861356	708.4260266524782	-67.15104249279135	0.9005401065000743	0.01929718473203197	0.5863565766632586	-6.278457266042506	2.026438784985426	31.11963209868119	18.52948725017014	170.1904395260058	-7.259694855391729	1.313063945214212	0.01929718473203197	0.3447599683351699	-5.996799233001225	0.4535223836736807	-14.39091770916906
